<svg width="24" height="42" viewBox="0 0 24 42" fill="none" xmlns="http://www.w3.org/2000/svg">
<g filter="url(#filter0_d)">
<path d="M19.9297 22.4062C19.9297 24.138 19.2852 25.5508 17.9961 26.6445C16.707 27.7383 14.9232 28.4284 12.6445 28.7148V33.3242H11.0625V28.793C9.86458 28.7669 8.55599 28.6237 7.13672 28.3633C5.73047 28.0898 4.61068 27.7578 3.77734 27.3672V25.3555C4.75391 25.8242 5.91927 26.2214 7.27344 26.5469C8.64062 26.8724 9.90365 27.0352 11.0625 27.0352V17.1133C9.17448 16.5404 7.77474 15.9674 6.86328 15.3945C5.95182 14.8216 5.28776 14.1445 4.87109 13.3633C4.45443 12.582 4.24609 11.6315 4.24609 10.5117C4.24609 8.89714 4.85807 7.54297 6.08203 6.44922C7.31901 5.34245 8.97917 4.65885 11.0625 4.39844V0.648438H12.6445V4.35938C15.2096 4.47656 17.4948 4.94531 19.5 5.76562L18.8555 7.52344C17.0195 6.71615 14.9492 6.2474 12.6445 6.11719V15.6094C15.418 16.4688 17.3255 17.4062 18.3672 18.4219C19.4089 19.4375 19.9297 20.7656 19.9297 22.4062ZM17.7812 22.3281C17.7812 21.2214 17.3711 20.3099 16.5508 19.5938C15.7305 18.8646 14.4284 18.2396 12.6445 17.7188V26.918C14.2331 26.7487 15.4831 26.2604 16.3945 25.4531C17.319 24.6458 17.7812 23.6042 17.7812 22.3281ZM6.375 10.5117C6.375 11.6315 6.74609 12.5495 7.48828 13.2656C8.23047 13.9818 9.42188 14.5872 11.0625 15.082V6.23438C9.51302 6.44271 8.34115 6.9375 7.54688 7.71875C6.76562 8.5 6.375 9.43099 6.375 10.5117Z" fill="#242121"/>
</g>
<defs>
<filter id="filter0_d" x="-0.222656" y="0.648438" width="24.1523" height="40.6758" filterUnits="userSpaceOnUse" color-interpolation-filters="sRGB">
<feFlood flood-opacity="0" result="BackgroundImageFix"/>
<feColorMatrix in="SourceAlpha" type="matrix" values="0 0 0 0 0 0 0 0 0 0 0 0 0 0 0 0 0 0 127 0"/>
<feOffset dy="4"/>
<feGaussianBlur stdDeviation="2"/>
<feColorMatrix type="matrix" values="0 0 0 0 0 0 0 0 0 0 0 0 0 0 0 0 0 0 0.25 0"/>
<feBlend mode="normal" in2="BackgroundImageFix" result="effect1_dropShadow"/>
<feBlend mode="normal" in="SourceGraphic" in2="effect1_dropShadow" result="shape"/>
</filter>
</defs>
</svg>
